/* XPM */
static char *_7032fc7ad8b41c3bca7c09ecbddd46bv9YcwgonpC2eltrG[] = {
/* columns rows colors chars-per-pixel */
"32 32 3 1 ",
"  c #545556",
". c #646E67",
"X c #79827E",
/* pixels */
"       XXXXXXXX .      XXXXXXXX ",
".XX.. ..XXXXXX. .XX.. ..XXXXXX. ",
"XXXX.XX. .XX.. .XXXX.XX. .XX.. .",
"XXXX.XXX.     ..XXXX.XXX.     ..",
".XX..XXXX. .XXX..XX..XXXX. .XXX.",
"   .XXXXX..XXXXX   .XXXXX..XXXXX",
". .XXXXXX.XXXXXX. .XXXXXX.XXXXXX",
".. ..XXXX.XXXXXXX. ..XXXX.XXXXXX",
".    .XX. XXXXXX.    .XX. XXXXXX",
".XXXX. .  .XXXXX.XXXX. .  .XXXXX",
"XXXXXX     .XXX.XXXXXX     .XXX.",
"XXXXXX  .XXX.  .XXXXXX  .XXX.  .",
"XXXXXX .XXXXXX. XXXXXX .XXXXXX. ",
"XXXXXX.XXXXXXXX XXXXXX.XXXXXXXX ",
"XXXXXX.XXXXXXXX XXXXXX.XXXXXXXX ",
".XXXX. XXXXXXXX .XXXX. XXXXXXXX ",
"       XXXXXXXX .      XXXXXXXX ",
".XX.. ..XXXXXX. .XX.. ..XXXXXX. ",
"XXXX.XX. .XX.. .XXXX.XX. .XX.. .",
"XXXX.XXX.     ..XXXX.XXX.     ..",
".XX..XXXX. .XXX..XX..XXXX. .XXX.",
"   .XXXXX..XXXXX   .XXXXX..XXXXX",
"  .XXXXXX.XXXXXX. .XXXXXX.XXXXXX",
".. ..XXXX.XXXXXXX. ..XXXX.XXXXXX",
".    .XX. XXXXXX.    .XX. XXXXXX",
".XXXX. .  .XXXXX.XXXX. .  .XXXXX",
"XXXXXX     .XXX.XXXXXX     .XXX.",
"XXXXXX  .XXX.  .XXXXXX  .XXX.  .",
"XXXXXX .XXXXXX. XXXXXX .XXXXXX. ",
"XXXXXX.XXXXXXXX XXXXXX.XXXXXXXX ",
"XXXXXX.XXXXXXXX XXXXXX.XXXXXXXX ",
".XXXX. XXXXXXXX .XXXX. XXXXXXXX "
};
