/* XPM */
static char *result[] = {
/* columns rows colors chars-per-pixel */
"32 32 22 1 ",
"  c black",
". c #0C0A07",
"X c #362623",
"o c #3A2B28",
"O c #4C342F",
"+ c #553D39",
"@ c #554C3C",
"# c #425059",
"$ c #634A45",
"% c #657358",
"& c #57636B",
"* c #6E7D61",
"= c #B56A68",
"- c #87947C",
"; c gray69",
": c #C0AC98",
"> c #D2A394",
", c #E4B5A5",
"< c #DBCBBC",
"1 c gray83",
"2 c gray89",
"3 c None",
/* pixels */
"33333333333333333333333333333333",
"33333333333333333333333333333333",
"33333333333333333333333333333333",
"33333333333333333333333333333333",
"33333333333333333333333333333333",
"33333333333333333333333333333333",
"33333333333333...3.3333333333333",
"3333333333....OOO.O.333333333333",
"333333333.OOO+$$$O$.333333333333",
"3333333333.+$$$$$$$$.33333333333",
"333333333.+$$$$$$$$$.33333333333",
"333333333.+$$$$OO$$$ 33333333333",
"33333333.OO+$$$>O$O$+ 3333333333",
"333333333.O$$$>>>$>$ 33333333333",
"333333333.+$$>>,,>>>+ 3333333333",
"33333333.O+$=>>.,,.> 33333333333",
"333333333.+++>>,,,,> 33333333333",
"3333333333.+++>,,,> 333333333333",
"33333333333..++>>>..333333333333",
"3333333333.oo*o:::o.333333333333",
"333333332.ooo*o<<:o.233333333333",
"33333333;121o-o<<<21;33333333333",
"333333333;;;122221;;333333333333",
"3333333333.*;;;;;;o.333333333333",
"3333333333.*%oo###o.333333333333",
"33333333333..#&&#&&.333333333333",
"333333333333.&#..#&.333333333333",
"33333333333.#&#..##.333333333333",
"33333333333.XX.3.XX.333333333333",
"3333333333.@@@.3.X@@.33333333333",
"33333333333..........33333333333",
"33333333333333333333333333333333"
};
