/* XPM */
static char *result[] = {
/* columns rows colors chars-per-pixel */
"32 32 22 1 ",
"  c #0C0A07",
". c #291A18",
"X c #362623",
"o c #3A2B28",
"O c #4C342F",
"+ c #413431",
"@ c #553D39",
"# c #4C403D",
"$ c #554C3C",
"% c #425059",
"& c #634A45",
"* c #57636B",
"= c #6E7D61",
"- c #B56A68",
"; c #87947C",
": c gray69",
"> c #C0AC98",
", c #D2A394",
"< c #E4B5A5",
"1 c #DBCBBC",
"2 c gray83",
"3 c None",
/* pixels */
"33333333333333333333333333333333",
"33333333333333333333333333333333",
"33333333333333333333333333333333",
"33333333333333333333333333333333",
"33333333333333333333333333333333",
"33333333333333333333333333333333",
"33333333333333  33 3333333333333",
"33333333333   OO  O 333333333333",
"3333333333 OOO&&OO&O 33333333333",
"33333333333 &&&&&&&&& 3333333333",
"3333333333 &&&&&&&&&&O 333333333",
"3333333333 &&&OO&O&&&OO 33333333",
"333333333 OO&&,O&,&&&& 333333333",
"3333333333 O&,,,&,,&&& 333333333",
"3333333333 &&, <,< ,O&& 33333333",
"333333333 @&-,.<<<.,-@ 333333333",
"3333333333 @@,<<<<<,@@ 333333333",
"33333333333 @@,<<<,@@  333333333",
"3333333333 ##@ ,,, +##< 33333333",
"3333333333 +##########< 33333333",
"33333333333 +#######+2:333333333",
"333333333333 ++++++;2:o 33333333",
"333333333333 =o>11o2: oo 3333333",
"333333333333 oo1>1oo 3 ,, 333333",
"333333333333 oo%*%oo 33  3333333",
"333333333333 %**%**% 33333333333",
"33333333333 %*%  %*% 33333333333",
"33333333333 %% 33 %% 33333333333",
"33333333333 XX 33 XX 33333333333",
"3333333333 $$X 33 X$$ 3333333333",
"33333333333           3333333333",
"33333333333333333333333333333333"
};
