/* XPM */
static char *result[] = {
/* columns rows colors chars-per-pixel */
"32 32 21 1 ",
"  c #0C0A07",
". c #291A18",
"X c #362623",
"o c #3A2B28",
"O c #4C342F",
"+ c #553D39",
"@ c #4C403D",
"# c #554C3C",
"$ c #425059",
"% c #634A45",
"& c #57636B",
"* c #6E7D61",
"= c #B56A68",
"- c #87947C",
"; c gray69",
": c #C0AC98",
"> c #D2A394",
", c #E4B5A5",
"< c #DBCBBC",
"1 c gray83",
"2 c None",
/* pixels */
"22222222222222222222222222222222",
"22222222222222222222222222222222",
"22222222222222222222222222222222",
"22222222222222222222222222222222",
"22222222222222222222222222222222",
"22222222222222  22 2222222222222",
"22222222222   OO  O 222222222222",
"2222222222 OOO%%OO%O 22222222222",
"22222222222 %%%%%%%%% 2222222222",
"2222222222 %%%%%%%%%%O 222222222",
"2222222222 %%%OO%O%%%OO 22222222",
"222222222 OO%%>O%>%%%% 222222222",
"2222222222 O%>>>%>>%%% 222222222",
"2222222222 %%> ,>, >O%% 22222222",
"222222222 +%=>.,,,.>=+ 222222222",
"2222222222 ++>,,,,,>++ 222222222",
"22222222222 ++>,,,>++ 2222222222",
"2222 222222  + >>> + 22222222222",
"222 1 222  @@*o:::o*o 2222222222",
"222 ;1   @@@@*o<<:o*o 2222222222",
"2222 ;1@@@  o-o<<<o-oo 222222222",
"22222 ;,, 22 *o:<<o*o@ 222222222",
"222222   222 oo<:<oo @@ 22222222",
"222222222222 oo$$$oo >, 22222222",
"222222222222 $&&&&&$   222222222",
"222222222222 $&&$&&$ 22222222222",
"222222222222 $&$ $&$ 22222222222",
"222222222222 $$ 2 $$ 22222222222",
"222222222222 XX 2 XX 22222222222",
"22222222222 ##X 2 X## 2222222222",
"22222222222           2222222222",
"22222222222222222222222222222222"
};
