/* XPM */
static char *result[] = {
/* columns rows colors chars-per-pixel */
"32 32 22 1 ",
"  c #0C0A07",
". c #291A18",
"X c #362623",
"o c #3A2B28",
"O c #4C342F",
"+ c #553D39",
"@ c #4C403D",
"# c #554C3C",
"$ c #425059",
"% c #634A45",
"& c #657358",
"* c #57636B",
"= c #6E7D61",
"- c #B56A68",
"; c #87947C",
": c gray69",
"> c #C0AC98",
", c #D2A394",
"< c #E4B5A5",
"1 c #DBCBBC",
"2 c gray83",
"3 c None",
/* pixels */
"33333333333333333333333333333333",
"33333333333333333333333333333333",
"33333333333333333333333333333333",
"33333333333333333333333333333333",
"33333333333333333333333333333333",
"333333333333333 3  3333333333333",
"3333333333333  O OO  33333333333",
"333333333333 +%%O%%+O  333333333",
"3333333333333 %%%%%%%O+ 33333333",
"333333333333 +%%%%%%%++ 33333333",
"333333333333 %OO%%%%%%+ 33333333",
"33333333333 O%,O%O%%%+OO 3333333",
"333333333333 %,,%,%%%%O 33333333",
"333333333333 , ,< ,%O%++ 3333333",
"33333333333 O,.<<.,,-%+ 33333333",
"333333333333 ,<<<<,,+++ 33333333",
"3333333333333 ,<<<,+++ 333333333",
"3333333333333  ,,, ++ 3333333333",
"333333333333 @o>>>o=o 3333333333",
"333333333333 @o11>o=oo 333333333",
"33333333333 2@@111o;oo 333333333",
"33333333333 :2@@11oo=@@ 33333333",
"333333333333 :2@@1oo&=@@ 3333333",
"3333333333333 :<<$oo&=<< 3333333",
"3333333333333 ****$$    33333333",
"3333333333333 **$**$ 33333333333",
"3333333333333 *$ $*$ 33333333333",
"3333333333333 $$ $*$ 33333333333",
"3333333333333 XX XXX 33333333333",
"333333333333 ##X ### 33333333333",
"333333333333         33333333333",
"33333333333333333333333333333333"
};
