/* XPM */
static char *result[] = {
/* columns rows colors chars-per-pixel */
"32 32 22 1 ",
"  c black",
". c #0C0A07",
"X c #291A18",
"o c #362623",
"O c #3A2B28",
"+ c #4C342F",
"@ c #553D39",
"# c #4C403D",
"$ c #554C3C",
"% c #425059",
"& c #634A45",
"* c #657358",
"= c #57636B",
"- c #6E7D61",
"; c #B56A68",
": c gray69",
"> c #C0AC98",
", c #D2A394",
"< c #E4B5A5",
"1 c #DBCBBC",
"2 c gray83",
"3 c None",
/* pixels */
"33333333333333333333333333333333",
"33333333333333333333333333333333",
"33333333333333333333333333333333",
"33333333333333333333333333333333",
"33333333333333333333333333333333",
"33333333333333...3.3333333333333",
"3333333333....+++.+.333333333333",
"333333333.+++@&&&+&.333333333333",
"3333333333.@&&&&&&&&.33333333333",
"333333333.@&&&&&&&&&.33333333333",
"333333333.@&&&&++&&& 33333333333",
"33333333.++@&&&,+&+&@ 3333333333",
"333333333.+&&&,,,&,& 33333333333",
"333333333.@&&,,.<,.,@ 3333333333",
"33333333.+@&;,,X<<X, 33333333333",
"333333333.@@@,,<<<<, 33333333333",
"3333333333.@@@,<<<, 333333333333",
"33333333333..@@,,,.3333333333333",
"3333333333.##-O>>>O.333333333333",
"3333333333.-##O11>O.333333333333",
"3333333333.-2##111O.333333333333",
"3333333333.-:2##11O#.33333333333",
"3333333333.-*:2##1OO.33333333333",
"3333333333.-*O:<<%OO.33333333333",
"33333333333..%%====.333333333333",
"333333333333.%==%==.333333333333",
"333333333333.%=%.%=.333333333333",
"333333333333.%=%.%%.333333333333",
"333333333333.ooo.oo.333333333333",
"333333333333.$$$.o$$.33333333333",
"333333333333.........33333333333",
"33333333333333333333333333333333"
};
