/* XPM */
static char *result[] = {
/* columns rows colors chars-per-pixel */
"32 32 23 1 ",
"  c black",
". c #0C0A07",
"X c #291A18",
"o c #362623",
"O c #3A2B28",
"+ c #4C342F",
"@ c #553D39",
"# c #4C403D",
"$ c #554C3C",
"% c #425059",
"& c #634A45",
"* c #657358",
"= c #57636B",
"- c #6E7D61",
"; c #B56A68",
": c #87947C",
"> c gray69",
", c #C0AC98",
"< c #D2A394",
"1 c #E4B5A5",
"2 c #DBCBBC",
"3 c gray83",
"4 c None",
/* pixels */
"44444444444444444444444444444444",
"44444444444444444444444444444444",
"44444444444444444444444444444444",
"44444444444444444444444444444444",
"44444444444444444444444444444444",
"44444444444444...4.4444444444444",
"4444444444....+++.+.444444444444",
"444444444.+++@&&&+&.444444444444",
"4444444444.@&&&&&&&&.44444444444",
"444444444.@&&&&&&&&&.44444444444",
"444444444.@&&&&++&&& 44444444444",
"44444444.++@&&&<+&+&@ 4444444444",
"444444444.+&&&<<<&<& 44444444444",
"444444444.@&&<<.1<.<@ 4444444444",
"44444444.+@&;<<X11X< 44444444444",
"444444444.@@@<<1111< 44444444444",
"4444444444.@@@<111< 444444444444",
"444.444444...@@<<<.4444444444444",
"44.3.444..###-O,,,O.444444444444",
"44.>3...#####-O22,O.444444444444",
"444.>3####.-*:O222O#.44444444444",
"4444.>11...--OO,22O#.44444444444",
"44444...44.-*OO2,2OO#.4444444444",
"4444444444.-*OO%%%OO<.4444444444",
"44444444444..%%====..44444444444",
"444444444444.%==%==.444444444444",
"444444444444.%=%.%=.444444444444",
"444444444444.%=%.%%.444444444444",
"444444444444.ooo.oo.444444444444",
"444444444444.$$$.o$$.44444444444",
"444444444444.........44444444444",
"44444444444444444444444444444444"
};
