/* XPM */
static char *result[] = {
/* columns rows colors chars-per-pixel */
"32 32 23 1 ",
"  c black",
". c #0C0A07",
"X c #291A18",
"o c #362623",
"O c #3A2B28",
"+ c #4C342F",
"@ c #413431",
"# c #553D39",
"$ c #4C403D",
"% c #554C3C",
"& c #425059",
"* c #634A45",
"= c #657358",
"- c #57636B",
"; c #6E7D61",
": c #B56A68",
"> c gray69",
", c #C0AC98",
"< c #D2A394",
"1 c #E4B5A5",
"2 c #DBCBBC",
"3 c gray83",
"4 c None",
/* pixels */
"44444444444444444444444444444444",
"44444444444444444444444444444444",
"44444444444444444444444444444444",
"44444444444444444444444444444444",
"44444444444444444444444444444444",
"44444444444444444444444444444444",
"44444444444444...4.4444444444444",
"4444444444....+++.+.444444444444",
"444444444.+++#***+*.444444444444",
"4444444444.#********.44444444444",
"444444444.#*********.44444444444",
"444444444.#****++*** 44444444444",
"44444444.++#***<+*+*# 4444444444",
"444444444.+***<<<*<* 44444444444",
"444444444.#**<<.1<.<# 4444444444",
"44444444.+#*:<<X11X< 44444444444",
"444444444.###<<1111< 44444444444",
"4444444444.###<111< .44444444444",
"444444444.@@@##<<<.$1.4444444444",
"444444444.@@$;O,,$$@1.4444444444",
"4444444444.@@$$$$$@3>.4444444444",
"4444444444..@@@@@@3>.44444444444",
"4444444444.;;OO,23>.444444444444",
"4444444444.;=OO2,2O.444444444444",
"4444444444.;=OO&&&O.444444444444",
"44444444444..&--&--.444444444444",
"444444444444.-&..&-.444444444444",
"44444444444.&-&..&&.444444444444",
"44444444444.oo.4.oo.444444444444",
"4444444444.%%%.4.o%%.44444444444",
"44444444444..........44444444444",
"44444444444444444444444444444444"
};
