/* XPM */
static char *ab47527e90c6481be89e51d3244c9b26YF4RU9VRbMXFB8NI[] = {
/* columns rows colors chars-per-pixel */
"32 32 4 1 ",
"  c gray21",
". c #494949",
"X c #5A5A59",
"o c #696967",
/* pixels */
"XoooooooXooooooooXoXXXooXXoXXXX.",
"oXXXXXXX.XXXXXXX.XXXXXXXXXXXXXX.",
"oXXXXXXX.XXXXXXX.XXXXXXXXXXXXXX.",
"oXXXXXXXX.XXXXX.XXXXXXXXXXXXXXX.",
"oXXXXXXXX.XXXXX.XXXXXXXXXXXXXXX.",
"oXXXXXXXX.XXXX.XXXXXXXXXXXXXXXX.",
"oXXXXXXXXX.XXX.XXXXXXXXXXXXXXXX.",
"X..XXXXXXX X. XXXXXXX...XXXXXXX.",
"oXX.XXXXXX  XXXXXXXXX...XXXXXXX.",
"oXXX XXXXX XXXXXXXXXXXXXXXXXXXX.",
"oXXX.XXXXX XXXXXXXXXXXXXXXXXXXX.",
"oXXX.XXXXX.XXXXXXXXXXXXXXXXXXXX.",
"oXXXX.XXX.XXXXXXXXXXXXXXXXXXXXX.",
"oXXXX XXX XXXXXXXXXXXXXXXXXXXXX.",
"oXXXX XX XXXXXXXXXXXXXXXXXXXXXX.",
"oXXXXX.  XXXXXXXXXXXXXXXXXXXXXX.",
"oXXXXXXX XXXXXXXXXXXXXXXXXXXXXX.",
"oXXXXXXX XXXXXXXXXXXXXXXXXXXXXX.",
"oXXXXXXXX.XXXXXXXXXXXXXXXXXXXXX.",
"oXXXXXXXXX..XXXXXXXXXXXXXXXXXXX.",
"oXXXXXXXXXXX. XXXXXXXXXXXXXXXXX.",
"oXXXXXXXXXXXXX XXXXXXXXXXXXXXXX.",
"oXXXXXXXXXXXXXX XXXXXXXXXXXXXXX.",
"oXXXXXXXXXXXXXX X..XXXXXXXXXXXX.",
"oXXXXXXXXXXXXXX X..XXXXXXXXXX...",
"oXXXXXXXXXXXXXX.XXXXXXXXXXXX.XX.",
"oXXXXXXXXXXXXXX.XXXXXXXXXXXX.XX.",
"oXXXXXXXXXXXXXX.XXXXXXXXX...XXX.",
"oXXXXXXXXXXXXXX.XXXXXXXX.XXX....",
"oXXXXXXXXXXXXXX.XXXXXXX.XXXXXXX.",
"oXXXXXXXXXXXXXXX.XXXXX.XXXXXXXX.",
"................ ..............."
};
