/* XPM */
static char *_4b785836fdb4221ee39323e786ee04cTFPFhzW8M0cmcVAJ[] = {
/* columns rows colors chars-per-pixel */
"32 32 4 1 ",
"  c #354048",
". c #545556",
"X c #646E67",
"o c #79827E",
/* pixels */
"  .oooX.XXooooooX.XXXXXX.Xooo.  ",
" .ooooo.XXooooooo.XXXXXX.ooooo. ",
".oooooX XXooooooo XXXXXX Xooooo.",
".  ...    ...   .  ...    ...   ",
"oooooX.XooooX.XooooooX.XooooX.Xo",
"oooooo.ooooo..oooooooo.ooooo..oo",
"oooXXX oooXXX oooooXXX oooXXX oo",
"X . .  ... .  .XX . .  ... .  .X",
"X.oooooo.XooooooX.oooooo.Xoooooo",
"o.oooooo.oooooooo.oooooo.ooooooo",
"o XooooX Xooooooo XooooX Xoooooo",
".  ...    ...   .  ...    ...   ",
"oooooX.Xoooo..XooooooX.Xoooo..Xo",
"oooooo.oooooX.oooooooo.oooooX.oo",
"ooooXX oooXXX ooooooXX oooXXX oo",
"   ..   .. .  .X   ..   .. .  .X",
"X.XXXXXX.XooooooX.XXXXXX.Xoooooo",
"o.XXXXXX.oooooooo.XXXXXX.ooooooo",
"o XXXXXX Xooooooo XXXXXX Xoooooo",
".  ...    ...   .  ...    ...   ",
"oooooX.XooooX.XooooooX.XooooX.Xo",
"oooooo.ooooo..oooooooo.ooooo..oo",
"oooXXX oooXXX oooooXXX oooXXX oo",
"X . .  ... .  .XX . .  ... .  .X",
"X.oooooo.XooooooX.oooooo.Xoooooo",
"o.oooooo.oooooooo.oooooo.ooooooo",
"o XooooX Xooooooo XooooX Xoooooo",
". ...... ...... . ...... ...... ",
"oooooo.XXXXXX.Xooooooo.XXXXXX.Xo",
"oooooo.XXXXXX.oooooooo.XXXXXX.oo",
"XooXX. XXXXXX ooXooXX. XXXXXX oo",
".  . .  ... .  X.  . .  ... .  X"
};
