/* XPM */
static char *a75f651c214e4ec58b461cb06b842c65rjpWXbXFQrqvMio7[] = {
/* columns rows colors chars-per-pixel */
"32 32 4 1 ",
"  c #354048",
". c #545556",
"X c #646E67",
"o c #79827E",
/* pixels */
"XooooooX.XXXXXX.XooooooX.XXXXXX.",
"oooooooo.XXXXXX.oooooooo.XXXXXX.",
"Xooooooo XXXXXX Xooooooo XXXXXX ",
" ...   .  ...    ...   .  ...   ",
"oooX.XooooooX.XooooX.XooooooX.Xo",
"ooo..oooooooo.ooooo..oooooooo.oo",
"oXXX oooooXXX oooXXX oooooXXX oo",
". .  .XX . .  ... .  .XX . .  ..",
"XooooooX.oooooo.XooooooX.oooooo.",
"oooooooo.oooooo.oooooooo.oooooo.",
"Xooooooo XooooX Xooooooo XooooX ",
" ...   .  ...    ...   .  ...   ",
"ooo..XooooooX.Xoooo..XooooooX.Xo",
"oooX.oooooooo.oooooX.oooooooo.oo",
"oXXX ooooooXX oooXXX ooooooXX oo",
". .  .X   ..   .. .  .X   ..   .",
"XooooooX.XXXXXX.XooooooX.XXXXXX.",
"oooooooo.XXXXXX.oooooooo.XXXXXX.",
"Xooooooo XXXXXX Xooooooo XXXXXX ",
" ...   .  ...    ...   .  ...   ",
"oooX.XooooooX.XooooX.XooooooX.Xo",
"ooo..oooooooo.ooooo..oooooooo.oo",
"oXXX oooooXXX oooXXX oooooXXX oo",
". .  .XX . .  ... .  .XX . .  ..",
"XooooooX.oooooo.XooooooX.oooooo.",
"oooooooo.oooooo.oooooooo.oooooo.",
"Xooooooo XooooX Xooooooo XooooX ",
"...... . ...... ...... . ...... ",
"XXXX.Xooooooo.XXXXXX.Xooooooo.XX",
"XXXX.oooooooo.XXXXXX.oooooooo.XX",
"XXXX ooXooXX. XXXXXX ooXooXX. XX",
".. .  X.  . .  ... .  X.  . .  ."
};
