/* XPM */
static char *result[] = {
/* columns rows colors chars-per-pixel */
"32 32 13 1 ",
"  c black",
". c #3C312C",
"X c #7A2D18",
"o c #512D23",
"O c #5B3C2C",
"+ c #453A35",
"@ c #4A413C",
"# c #60583C",
"$ c #695D58",
"% c #5E724A",
"& c #677755",
"* c #778667",
"= c None",
/* pixels */
"================================",
"================================",
"================================",
"================================",
"================================",
"================================",
"================================",
"================================",
"================================",
"================================",
"================================",
"================================",
"================================",
"================================",
"================================",
"================================",
"================================",
"================================",
"================================",
"================================",
"================================",
"================================",
"================================",
"========================   =====",
"======================= %O% ====",
"====================== %%%X% ===",
"=================     %%&OXO% ==",
"=============    ....%%&oXooO% =",
"============ @###...%%%%Xoooo% =",
"============ $#*+++XX%XX%XooX%X=",
"============                   =",
"================================"
};
