/* XPM */
static char *result[] = {
/* columns rows colors chars-per-pixel */
"32 32 18 1 ",
"  c black",
". c #2D2420",
"X c #342A25",
"o c #3C312C",
"O c #7A2D18",
"+ c #512D23",
"@ c #5B3C2C",
"# c #453A35",
"$ c #4A413C",
"% c #60583C",
"& c #695D58",
"* c #5E724A",
"= c #677755",
"- c #6A7A5A",
"; c #70805F",
": c #778667",
"> c #A2A97F",
", c None",
/* pixels */
",,,,,,,,,,,,,,,,,,,,,,,,,,,,,,,,",
",,,,,,,,,,,,,,,,,,,,,,,,,,,,,,,,",
",,,,,,,,,,,,,,,,,,,,,,,,,,,,,,,,",
",,,,,,,,,,,,,,,,,,,,,,,,,,,,,,,,",
",,,,,,,,,,,,,,,,,,,,,,,,,,,,,,,,",
",,,,,,,,,,,,,,,,,,,,,,,,,,,,,,,,",
",,,,,,,,,,,,,,,,,,,,,,,,,,,,,,,,",
",,,,,,,,,,,,,,,,,,,,,,,,,,,,,,,,",
",,,,,,,,,,,,,,,,,,,,,,,,,,,,,,,,",
",,,,,,,,,,,,,,,,,,,,,,,,,,,,,,,,",
",,,,,,,,,,,,,,,,,,,,,,,,,,,,,,,,",
",,,,,,,,,,,,,,,,,,,,,,,,,,,,,,,,",
",,,,,,,,,,,,,,,,,,,,,,,,,,,,,,,,",
",,,,,,,,,,,,,,,,,,,     ,,,,,,,,",
",,,,,,,,,,,,,,,,,, *O+++ ,,,,,,,",
",,,,,,,,,,,,,,,,, +@O++O* ,,,,,,",
",,,,,,,,,,,,,,,, ++@*O+OO* ,,,,,",
",,,,,,,,,,,,,,,, +OO*OO=OO ,,,,,",
",,,,,,,,,,,,,,,, @OO=;O;OO ,,,,,",
",,,,,,,,,,,,,,,, OO;;;O;;O ,,,,,",
",,,,,,,,,,,,,,,, *;;;;;O;; ,,,,,",
",,,,,,,,,,,,,,,,, ;   O@   ,,,,,",
",,,,,,,,,,,,,,,,  ;;;;;@;= ,,,,,",
",,,,,,,,,,,,,,, #o*;;;;;@= ,,,,,",
",,,,,,,,,,,,,,, #oo*>;>;>@ ,,,,,",
",,,,,,,,,,,,,,, #ooo*>O>O ,,,,,,",
",,,,,,,,,,,,,, +#oooo*OO ,,,,,,,",
",,,,,,,,,,,,,  :+ooo;o# ,,,,,,,,",
",,,,,,,,,,,, $%#XXX-OXO ,,,,,,,,",
",,,,,,,,,,,, &O#.....# ,,,,,,,,,",
",,,,,,,,,,,,           ,,,,,,,,,",
",,,,,,,,,,,,,,,,,,,,,,,,,,,,,,,,"
};
