/* XPM */
static char *b7d98260df77447dfa80eab33fcf9985C8PR4YutaXyQ1wlQ[] = {
/* columns rows colors chars-per-pixel */
"32 32 21 1 ",
"  c None",
". c black",
"X c #342A25",
"o c #3C312C",
"O c #7A2D18",
"+ c #512D23",
"@ c #5B3C2C",
"# c #453A35",
"$ c #4A413C",
"% c #5A5237",
"& c #645C3F",
"* c #695D58",
"= c #5E724A",
"- c #70694F",
"; c #677755",
": c #6A7A5A",
"> c #70805F",
", c #778667",
"< c #8DAB5F",
"1 c #A2A97F",
"2 c #BEC49F",
/* pixels */
"                                ",
"                                ",
"                                ",
"                                ",
"                                ",
"              .....             ",
"             .@++++.            ",
"            .@=@++@=.           ",
"           .+@=@+@===.          ",
"           .+@=@@;===.          ",
"           .@=;@>>;==.          ",
"           .=;>@>>>;=.          ",
"           .;..>@>..;.          ",
"           .;2<>@><2;.          ",
"           .>>>>>@>>>.          ",
"           .=>>>>>@>=.          ",
"          .+#=1>1>1@.           ",
"         .++#o=1O1Oo.           ",
"        .,+#ooo=OOo..           ",
"        .#,.oooo>o###.          ",
"        .#..XXX::##,,.          ",
"       .##..XXX:X....           ",
"       .##..XXXXX.              ",
"      .##. .&&&&&&.             ",
"      .,,. .&&&%&&&.            ",
"       ..   .&&&%&&&.           ",
"            .&&&.%&-.           ",
"           .---..&--.           ",
"           .$$. .>>.            ",
"           .**. O..             ",
"           .... ....            ",
"                                "
};
